<svg width="21" height="22" viewBox="0 0 21 22" fill="none" xmlns="http://www.w3.org/2000/svg">
<rect x="11.375" y="12.8333" width="1.75" height="1.83333" rx="0.875" fill="white"/>
<rect x="6.125" y="10.0833" width="1.75" height="5.5" rx="0.875" fill="white"/>
<rect x="9.625" y="11.9167" width="1.83333" height="5.25" rx="0.916667" transform="rotate(90 9.625 11.9167)" fill="white"/>
<rect x="14" y="11" width="1.75" height="1.83333" rx="0.875" fill="white"/>
<path d="M12.25 7.33325V7.30894C12.25 7.05661 12.25 6.93044 12.2372 6.81804C12.1533 6.07856 11.6657 5.44684 10.9717 5.1783C10.8662 5.13748 10.7441 5.10552 10.5 5.04159V5.04159C10.2559 4.97765 10.1338 4.94569 10.0283 4.90487C9.33426 4.63633 8.84668 4.00461 8.76276 3.26513C8.75 3.15273 8.75 3.02656 8.75 2.77423V1.83325" stroke="white" stroke-width="2" stroke-linecap="round"/>
<path d="M2.625 12.8333C2.625 10.4877 2.625 9.31489 3.16745 8.50697C3.3071 8.29897 3.47 8.11279 3.652 7.95319C4.35893 7.33325 5.38512 7.33325 7.4375 7.33325H13.5625C15.6149 7.33325 16.6411 7.33325 17.348 7.95319C17.53 8.11279 17.6929 8.29897 17.8326 8.50697C18.375 9.31489 18.375 10.4877 18.375 12.8333C18.375 15.1788 18.375 16.3516 17.8326 17.1595C17.6929 17.3675 17.53 17.5537 17.348 17.7133C16.6411 18.3333 15.6149 18.3333 13.5625 18.3333H7.4375C5.38512 18.3333 4.35893 18.3333 3.652 17.7133C3.47 17.5537 3.3071 17.3675 3.16745 17.1595C2.625 16.3516 2.625 15.1788 2.625 12.8333Z" stroke="white" stroke-width="2"/>
</svg>
